HIERARCHY
ROOT Hips
{
	OFFSET 0.000000 0.000000 0.000000
	CHANNELS 6 Xposition Yposition Zposition Zrotation Yrotation Xrotation 
	JOINT LowerBack
	{
		OFFSET 0.000000 0.000000 0.000000
		CHANNELS 3 Zrotation Yrotation Xrotation
		JOINT Spine
		{
			OFFSET 0.028270 2.035590 -0.193380
			CHANNELS 3 Zrotation Yrotation Xrotation
			JOINT Spine1
			{
				OFFSET 0.056720 2.048850 -0.042750
				CHANNELS 3 Zrotation Yrotation Xrotation
				JOINT Neck
				{
					OFFSET 0.000000 0.000000 0.000000
					CHANNELS 3 Zrotation Yrotation Xrotation
					JOINT Neck1
					{
						OFFSET -0.054170 1.746240 0.172020
						CHANNELS 3 Zrotation Yrotation Xrotation
						JOINT Head
						{
							OFFSET 0.104070 1.761360 -0.123970
							CHANNELS 3 Zrotation Yrotation Xrotation
							End Site
							{
								OFFSET 0.000000 0.000000 0.000000
							}
						}
					}
				}
				JOINT LeftShoulder
				{
					OFFSET 0.000000 0.000000 0.000000
					CHANNELS 3 Zrotation Yrotation Xrotation
					JOINT LeftArm
					{
						OFFSET 3.362410 1.200890 -0.311210
						CHANNELS 3 Zrotation Yrotation Xrotation
						JOINT LeftForeArm
						{
							OFFSET 4.983000 -0.000000 -0.000000
							CHANNELS 3 Zrotation Yrotation Xrotation
							JOINT LeftHand
							{
								OFFSET 3.483560 -0.000000 -0.000000
								CHANNELS 3 Zrotation Yrotation Xrotation
								JOINT LeftFingerBase
								{
									OFFSET 0.000000 0.000000 0.000000
									CHANNELS 3 Zrotation Yrotation Xrotation
									JOINT LeftHandIndex1
									{
										OFFSET 0.715260 -0.000000 -0.000000
										CHANNELS 3 Zrotation Yrotation Xrotation
										End Site
										{
											OFFSET 0.000000 0.000000 0.000000
										}
									}
								}
								JOINT LThumb
								{
									OFFSET 0.000000 0.000000 0.000000
									CHANNELS 3 Zrotation Yrotation Xrotation
									End Site
									{
										OFFSET 0.000000 0.000000 0.000000
									}
								}
							}
						}
					}
				}
				JOINT RightShoulder
				{
					OFFSET 0.000000 0.000000 0.000000
					CHANNELS 3 Zrotation Yrotation Xrotation
					JOINT RightArm
					{
						OFFSET -3.136600 1.374050 -0.404650
						CHANNELS 3 Zrotation Yrotation Xrotation
						JOINT RightForeArm
						{
							OFFSET -5.241900 -0.000000 -0.000000
							CHANNELS 3 Zrotation Yrotation Xrotation
							JOINT RightHand
							{
								OFFSET -3.444170 -0.000000 -0.000000
								CHANNELS 3 Zrotation Yrotation Xrotation
								JOINT RightFingerBase
								{
									OFFSET 0.000000 0.000000 0.000000
									CHANNELS 3 Zrotation Yrotation Xrotation
									JOINT RightHandIndex1
									{
										OFFSET -0.622530 -0.000000 -0.000000
										CHANNELS 3 Zrotation Yrotation Xrotation
										End Site
										{
											OFFSET 0.000000 0.000000 0.000000
										}
									}
								}
								JOINT RThumb
								{
									OFFSET 0.000000 0.000000 0.000000
									CHANNELS 3 Zrotation Yrotation Xrotation
									End Site
									{
										OFFSET 0.000000 0.000000 0.000000
									}
								}
							}
						}
					}
				}
			}
		}
	}
}
}
MOTION
Frames: 9
Frame Time: 0.008333
2.126399 16.506414 0.928514 146.609167 -86.842926 -141.705517 -8.669457 2.210789 -4.809805 -2.497209 2.652050 -4.023875 -5.235142 2.513888 -0.023405 6.829667 -3.212668 -7.381980 -1.882537 -0.155662 0.095383 0.000000 0.000000 0.000000 -5.595422 22.869737 1.675986 -52.795818 25.931752 -15.850419 -4.921762 -4.447502 0.004589 7.220824 1.249665 0.084690 -0.155522 -0.065265 -0.000000 0.000000 0.000000 0.000000 0.000000 0.000000 0.000000 5.036481 4.040645 -1.169634 38.512668 44.385145 9.918513 0.253474 69.436755 -0.005395 1.267724 7.060297 0.092381 -0.131651 -0.493714 0.000000 0.000000 0.000000 0.000000 0.000000 0.000000 0.000000 
1.980746 16.457308 0.939374 144.462768 -86.594319 -139.749085 -8.858025 2.144343 -4.563824 -2.536870 2.605515 -3.997658 -5.268946 2.477081 -0.086175 6.902337 -3.044444 -7.409942 -1.947861 -0.159731 0.080325 0.000000 0.000000 0.000000 -5.973940 22.543344 1.776915 -53.549847 24.541658 -15.380519 -4.852343 -4.472611 0.005732 7.483549 0.974296 0.069106 -0.143298 -0.064177 -0.000000 0.000000 0.000000 0.000000 0.000000 0.000000 0.000000 5.246311 4.327603 -1.108419 40.199738 43.695136 10.503852 0.304752 69.355990 -0.004931 1.199393 7.083886 0.087675 -0.124051 -0.492504 0.000000 0.000000 0.000000 0.000000 0.000000 0.000000 0.000000 
1.840206 16.404690 0.950206 142.714735 -86.305616 -138.181948 -9.052010 2.077527 -4.302426 -2.577043 2.559154 -3.970361 -5.303676 2.439907 -0.157750 6.981638 -2.855138 -7.436259 -2.022209 -0.164441 0.064832 0.000000 0.000000 0.000000 -6.349297 22.174330 1.886389 -54.328071 23.072986 -14.890004 -4.776377 -4.472668 0.006599 7.770057 0.737705 0.055120 -0.130397 -0.062421 -0.000000 0.000000 0.000000 0.000000 0.000000 0.000000 0.000000 5.501915 4.640912 -1.036877 41.827348 42.990749 11.089103 0.353000 69.205627 -0.004541 1.121629 7.115910 0.082469 -0.116288 -0.491157 0.000000 0.000000 0.000000 0.000000 0.000000 0.000000 0.000000 
1.704229 16.349545 0.960748 141.254954 -85.989825 -136.895564 -9.253836 2.007059 -4.033045 -2.619390 2.509651 -3.942543 -5.344157 2.399007 -0.234944 7.082149 -2.650394 -7.457149 -2.108730 -0.170088 0.049740 0.000000 0.000000 0.000000 -6.711650 21.764199 2.000513 -55.114341 21.524481 -14.354048 -4.695492 -4.443093 0.007159 8.064421 0.546532 0.043332 -0.116941 -0.059957 -0.000000 0.000000 0.000000 0.000000 0.000000 0.000000 0.000000 5.838083 4.970712 -0.952844 43.377149 42.282946 11.689517 0.398729 68.979713 -0.004326 1.019364 7.160299 0.075662 -0.108137 -0.489643 0.000000 0.000000 0.000000 0.000000 0.000000 0.000000 0.000000 
1.572149 16.293101 0.970862 139.992166 -85.658893 -135.799390 -9.463119 1.930749 -3.762629 -2.664779 2.454658 -3.915513 -5.394444 2.351886 -0.318068 7.213323 -2.430019 -7.464725 -2.209567 -0.176948 0.037123 0.000000 0.000000 0.000000 -7.058270 21.303321 2.115396 -55.890694 19.913087 -13.739234 -4.612119 -4.394063 0.007398 8.347448 0.406957 0.034243 -0.103121 -0.056804 -0.000000 0.000000 0.000000 0.000000 0.000000 0.000000 0.000000 6.276857 5.312917 -0.854885 44.849374 41.564902 12.315177 0.442944 68.675209 -0.004311 0.887707 7.217791 0.066854 -0.099492 -0.487824 -0.000000 0.000000 0.000000 0.000000 0.000000 0.000000 0.000000 
1.443333 16.236738 0.980498 138.866987 -85.324496 -134.835585 -9.674974 1.847921 -3.496869 -2.712823 2.393082 -3.891771 -5.457633 2.297128 -0.413366 7.378144 -2.187093 -7.445458 -2.325887 -0.185301 0.030780 0.000000 0.000000 0.000000 -7.393239 20.760058 2.228011 -56.640644 18.288969 -13.010248 -4.529690 -4.359400 0.007324 8.597162 0.326280 0.028751 -0.089213 -0.053065 -0.000000 0.000000 0.000000 0.000000 0.000000 0.000000 0.000000 6.826117 5.670221 -0.741699 46.256978 40.811082 12.967124 0.486833 68.290534 -0.004463 0.729264 7.286284 0.056143 -0.090344 -0.485503 -0.000000 0.000000 0.000000 0.000000 0.000000 0.000000 0.000000 
1.317078 16.181904 0.989559 137.801632 -84.996844 -133.924666 -9.888216 1.757680 -3.241499 -2.763886 2.323936 -3.871985 -5.536020 2.233621 -0.519644 7.580561 -1.929039 -7.393519 -2.457817 -0.195227 0.032368 0.000000 0.000000 0.000000 -7.711971 20.127296 2.335404 -57.350686 16.662681 -12.131306 -4.450082 -4.349630 0.006974 8.802395 0.303283 0.027257 -0.075484 -0.048753 -0.000000 0.000000 0.000000 0.000000 0.000000 0.000000 0.000000 7.494609 6.029158 -0.614321 47.610599 40.015528 13.651635 0.531411 67.813027 -0.004774 0.542268 7.367355 0.043228 -0.080660 -0.482505 -0.000000 0.000000 0.000000 0.000000 0.000000 0.000000 0.000000 
1.192967 16.129976 0.998090 136.756060 -84.685347 -133.027636 -10.096988 1.660827 -2.999831 -2.816850 2.247652 -3.857701 -5.630082 2.161498 -0.641258 7.816887 -1.657239 -7.299377 -2.603900 -0.206729 0.044751 0.000000 0.000000 0.000000 -8.015930 19.378375 2.436144 -58.010961 15.072961 -11.077262 -4.375617 -4.394094 0.006391 8.951714 0.337908 0.030062 -0.062264 -0.043926 -0.000000 0.000000 0.000000 0.000000 0.000000 0.000000 0.000000 8.273080 6.382319 -0.474236 48.930345 39.157160 14.363604 0.577712 67.228965 -0.005190 0.334482 7.460124 0.028710 -0.070577 -0.478611 -0.000000 0.000000 0.000000 0.000000 0.000000 0.000000 0.000000 
1.070564 16.082180 1.006080 135.680324 -84.396413 -132.092619 -10.299212 1.557593 -2.774035 -2.871236 2.164423 -3.847023 -5.738558 2.080977 -0.769641 8.084098 -1.390447 -7.168534 -2.760709 -0.219428 0.066554 0.000000 0.000000 0.000000 -8.296308 18.540340 2.528092 -58.612015 13.481637 -9.803348 -4.306009 -4.480326 0.005616 9.049650 0.423863 0.036766 -0.049827 -0.038469 -0.000000 0.000000 0.000000 0.000000 0.000000 0.000000 0.000000 9.149006 6.703318 -0.328104 50.235766 38.244188 15.102915 0.626392 66.512033 -0.005673 0.111798 7.568007 0.012785 -0.060295 -0.473606 -0.000000 0.000000 0.000000 0.000000 0.000000 0.000000 0.000000 
